<svg xmlns="http://www.w3.org/2000/svg" viewBox="0 0 180.1 19.3"><path d="M0,9.6A11.6,11.6,0,0,1,.8,5.4,7.4,7.4,0,0,1,3.1,2.5,8.5,8.5,0,0,1,6.2.8,13.6,13.6,0,0,1,9.8.3a15.1,15.1,0,0,1,5.6,1.1V5.1a9.5,9.5,0,0,0-5.1-1.4A6.8,6.8,0,0,0,5.8,5.2,5.5,5.5,0,0,0,3.9,9.6a6.7,6.7,0,0,0,.6,3,4.9,4.9,0,0,0,1.6,1.9,6.6,6.6,0,0,0,1.9.9l2.1.3a5.9,5.9,0,0,0,2-.4V8.9h3.7v8.9A15.2,15.2,0,0,1,9.9,19a15.3,15.3,0,0,1-3-.3,10.2,10.2,0,0,1-2.7-1.1A12.4,12.4,0,0,1,2,15.8,7.2,7.2,0,0,1,.6,13.2,10.5,10.5,0,0,1,0,9.6Z" style="fill:#fff4e3"/><path d="M18.7,13.2a10.5,10.5,0,0,1-.6-3.6,10.3,10.3,0,0,1,.6-3.5,11.1,11.1,0,0,1,1.7-3A10.5,10.5,0,0,1,23.5,1,10.7,10.7,0,0,1,27.6.3a10.9,10.9,0,0,1,4.2.7,10,10,0,0,1,3,2.1,9.2,9.2,0,0,1,1.8,3,10.3,10.3,0,0,1,.6,3.5,10.5,10.5,0,0,1-.6,3.6,9.2,9.2,0,0,1-1.8,3,10,10,0,0,1-3,2.1,10.9,10.9,0,0,1-4.2.7,10.7,10.7,0,0,1-4.1-.7,10.5,10.5,0,0,1-3.1-2.1A11.1,11.1,0,0,1,18.7,13.2Zm13.1.6a6,6,0,0,0,1.5-4.2,5.9,5.9,0,0,0-1.5-4.1,5.4,5.4,0,0,0-4.2-1.6,5,5,0,0,0-4.1,1.6A5.9,5.9,0,0,0,22,9.6a6,6,0,0,0,1.5,4.2,5,5,0,0,0,4.1,1.6A5.4,5.4,0,0,0,31.8,13.8Z" style="fill:#fff4e3"/><path d="M45.5,2.6a10.1,10.1,0,0,1,6-1.8,7.4,7.4,0,0,1,4.6,1.3A4.6,4.6,0,0,1,57.9,6a4.8,4.8,0,0,1-1.3,3.4A13.8,13.8,0,0,1,53.2,12,24.3,24.3,0,0,0,50,14.1a1.9,1.9,0,0,0-.7,1.3H58v3.4H44.9V16.9a6.6,6.6,0,0,1,.4-2.5,5.6,5.6,0,0,1,1.4-2L48.3,11l2-1.2a.1.1,0,0,1,.1-.1h.3l.6-.3.7-.4.5-.3.6-.4c.1-.1.2-.3.4-.4l.3-.5c.1-.1.1-.3.2-.5s.1-.4.1-.6a1.6,1.6,0,0,0-.8-1.4,3.3,3.3,0,0,0-2.1-.5,9.6,9.6,0,0,0-5.7,2Z" style="fill:#fff4e3"/><path d="M60.1,9.9A10,10,0,0,1,61,5.6a6.9,6.9,0,0,1,2.2-3A7.3,7.3,0,0,1,66.3.9,10.3,10.3,0,0,1,69.8.3,12.7,12.7,0,0,1,75,1.4V5.1a7.3,7.3,0,0,0-4.5-1.4A6.4,6.4,0,0,0,66,5.3a5.4,5.4,0,0,0-1.9,4.6,5.1,5.1,0,0,0,.6,2.5,3.7,3.7,0,0,0,1.4,1.8,5.4,5.4,0,0,0,2,1,6.7,6.7,0,0,0,2.4.4,6.5,6.5,0,0,0,4.6-1.5v3.8A12.7,12.7,0,0,1,69.9,19a14.2,14.2,0,0,1-3.6-.5,13.4,13.4,0,0,1-3.1-1.7A7.2,7.2,0,0,1,61,13.9,8.7,8.7,0,0,1,60.1,9.9Z" style="fill:#fff4e3"/><path d="M103.8.6H108l-5.6,18.1H98.2L94.7,6.4,91.1,18.7H86.9L81.3.6h4.2l3.6,13.7L93,.6h3.4l3.9,13.7Z" style="fill:#fff4e3"/><path d="M134.6,18.7h-3.9V.6h7.4a11.2,11.2,0,0,1,2.7.3,8.5,8.5,0,0,1,2.2.9,5.2,5.2,0,0,1,1.7,1.9,6.1,6.1,0,0,1,.6,2.8,5.3,5.3,0,0,1-3.9,5.4l5.3,6.8h-4.4l-4.9-6.3h-2.8Zm0-14.7V9.1h3.7a3.8,3.8,0,0,0,2.2-.6,2.2,2.2,0,0,0,.9-1.9,2.1,2.1,0,0,0-.9-1.9,3.2,3.2,0,0,0-2.2-.7Z" style="fill:#fff4e3"/><path d="M148.9.6h3.9V15.2h8.8v3.5H148.9Z" style="fill:#fff4e3"/><path d="M163.9.6h6.7a9.7,9.7,0,0,1,7.1,2.5,8.8,8.8,0,0,1,2.4,6.5,8.9,8.9,0,0,1-2.4,6.6,9.7,9.7,0,0,1-7.1,2.5h-6.7Zm10.8,13.2c1-.9,1.4-2.3,1.4-4.2a5.6,5.6,0,0,0-1.4-4.2A5.6,5.6,0,0,0,170.6,4h-2.9V15.3h2.9A5.3,5.3,0,0,0,174.7,13.8Z" style="fill:#fff4e3"/><path d="M121.7,1.9a5.5,5.5,0,0,1,3.4,1,9.7,9.7,0,0,0-14,.2.7.7,0,0,0-.2.6c.1.7.8,1,2,1a11.9,11.9,0,0,0,4-1.4A11.1,11.1,0,0,1,121.7,1.9Z" style="fill:#fff4e3;fill-rule:evenodd"/><path d="M118.6,11.4A28.8,28.8,0,0,1,124,9.8c2.1-.4,3.3.1,3.7,1.5a7.6,7.6,0,0,0-.5-4.7c-.9-1-2.7-1.1-5.4-.2l-4,1.4a29.9,29.9,0,0,1-5.4,1.7c-2.1.4-3.3-.2-3.7-1.6a7.4,7.4,0,0,0,.5,4.7q1.3,1.5,5.4.3Z" style="fill:#fff4e3;fill-rule:evenodd"/><path d="M114.7,17.4a5.3,5.3,0,0,1-3.4-1,9.7,9.7,0,0,0,7.2,2.9,9.1,9.1,0,0,0,6.7-3.2c.2-.2.3-.2.3-.5s-.8-1-2.1-1a12.2,12.2,0,0,0-3.9,1.4A11.1,11.1,0,0,1,114.7,17.4Z" style="fill:#fff4e3;fill-rule:evenodd"/></svg>